
<svg xmlns="http://www.w3.org/2000/svg" viewBox="0 0 320 320">
<rect width="320" height="320" rx="48" fill="#FFF6F3"/>
<defs>
<clipPath id="c">
<path d="M170,30
C110,30 75,60 75,100
C75,135 100,155 150,170
C200,185 225,198 225,220
C225,240 205,250 170,250
C130,250 105,235 85,215
L60,235
C90,265 125,280 175,280
C245,280 285,248 285,205
C285,165 255,145 195,128
C140,112 135,104 135,88
C135,70 152,58 178,58
C205,58 225,70 245,88
L270,58
C242,38 215,30 170,30Z"/>
</clipPath>
</defs>
<path fill="#663209" d="M170,30
C110,30 75,60 75,100
C75,135 100,155 150,170
C200,185 225,198 225,220
C225,240 205,250 170,250
C130,250 105,235 85,215
L60,235
C90,265 125,280 175,280
C245,280 285,248 285,205
C285,165 255,145 195,128
C140,112 135,104 135,88
C135,70 152,58 178,58
C205,58 225,70 245,88
L270,58
C242,38 215,30 170,30Z"/>
<g clip-path="url(#c)">
<rect x="100" y="170" width="28" height="55" fill="#E85D8E"/>
<rect x="140" y="145" width="28" height="80" fill="#F6A04D"/>
<rect x="180" y="110" width="28" height="115" fill="#49B675"/>
<path d="M70,210 C130,190 180,150 235,95" fill="none" stroke="#FFF6F3" stroke-width="10"/>
</g>
</svg>
